<?xml version="1.0" encoding="UTF-8" standalone="no"?>
<!-- Created with Inkscape (http://www.inkscape.org/) -->

<svg
   width="172.99817mm"
   height="172.98221mm"
   viewBox="0 0 172.99817 172.98221"
   version="1.1"
   id="svg10125"
   inkscape:version="1.2.2 (b0a8486541, 2022-12-01)"
   sodipodi:docname="logo.svg"
   xmlns:inkscape="http://www.inkscape.org/namespaces/inkscape"
   xmlns:sodipodi="http://sodipodi.sourceforge.net/DTD/sodipodi-0.dtd"
   xmlns="http://www.w3.org/2000/svg"
   xmlns:svg="http://www.w3.org/2000/svg">
  <sodipodi:namedview
     id="namedview10127"
     pagecolor="#ffffff"
     bordercolor="#666666"
     borderopacity="1.0"
     inkscape:showpageshadow="2"
     inkscape:pageopacity="0.0"
     inkscape:pagecheckerboard="0"
     inkscape:deskcolor="#d1d1d1"
     inkscape:document-units="mm"
     showgrid="false"
     showguides="true"
     inkscape:zoom="0.457453"
     inkscape:cx="1275.5409"
     inkscape:cy="563.99236"
     inkscape:window-width="2510"
     inkscape:window-height="1371"
     inkscape:window-x="0"
     inkscape:window-y="0"
     inkscape:window-maximized="1"
     inkscape:current-layer="layer1">
    <inkscape:grid
       type="axonomgrid"
       id="grid10492"
       originx="-457.68646"
       originy="-17.330555" />
    <inkscape:page
       x="0"
       y="0"
       width="172.99818"
       height="172.98221"
       id="page110419" />
    <inkscape:page
       x="183.73228"
       y="-0.0042322804"
       width="173.70508"
       height="200.366"
       id="page110421" />
    <inkscape:page
       x="367.43738"
       y="0"
       width="173.70509"
       height="200.366"
       id="page112308" />
  </sodipodi:namedview>
  <defs
     id="defs10122" />
  <g
     inkscape:label="Layer 1"
     inkscape:groupmode="layer"
     id="layer1"
     transform="translate(-457.68648,-17.330553)">
    <path
       style="fill:#a1c535;fill-opacity:1;fill-rule:evenodd;stroke:#a1c535;stroke-width:0.231799;stroke-linecap:butt;stroke-linejoin:miter;stroke-dasharray:none;stroke-opacity:1"
       d="m 457.94542,60.625376 76.97415,-38.527373 9.26599,-4.637843 86.24015,43.165216 -17.24804,8.633044 -68.99211,-34.532173 -68.73369,34.661521 z"
       id="path37117-9"
       inkscape:transform-center-x="0.27939541"
       inkscape:transform-center-y="1.8355335"
       sodipodi:nodetypes="cccccccc"
       inkscape:export-filename="logo-128x128.png"
       inkscape:export-xdpi="18.793262"
       inkscape:export-ydpi="18.793262" />
    <path
       style="fill:#ea205e;fill-opacity:1;fill-rule:evenodd;stroke:#ea205e;stroke-width:0.231799;stroke-linecap:butt;stroke-linejoin:miter;stroke-dasharray:none;stroke-opacity:1"
       d="m 544.18556,103.7906 0.0812,-68.994876 68.91087,34.462698 v 69.064348 z"
       id="path37123-4"
       sodipodi:nodetypes="ccccc" />
    <path
       style="fill:#1b6ac6;fill-opacity:1;stroke:#1b6ac6;stroke-width:0.231799;stroke-dasharray:none;stroke-opacity:1"
       d="m 543.93103,182.01468 0.25452,-9.15971 34.88108,-17.21548 34.21028,-17.12046 0.054,-34.56573 0.054,-34.565498 8.39699,-4.193946 8.39671,-4.194173 0.0514,42.846497 -0.10197,42.97599 -85.9425,43.29875 -0.25452,-8.10624"
       id="path43728-7"
       sodipodi:nodetypes="csscccccsssc" />
    <path
       style="fill:#a5073e;fill-opacity:1;stroke:#a5073e;stroke-width:0.231799;stroke-dasharray:none;stroke-opacity:1"
       d="m 501.0308,168.29875 -42.80716,-21.41126 -0.007,-42.96297 -0.007,-42.962754 0.45819,0.254455 8.34898,4.197829 7.89087,3.943372 v 34.533528 34.53328 l 34.41368,17.20703 34.86395,17.22371 -0.29113,8.77231 0.29113,8.49364 -43.15456,-21.82217"
       id="path46115-8"
       sodipodi:nodetypes="ccccsscccszzcc" />
    <path
       style="fill:#add439;fill-opacity:1;fill-rule:evenodd;stroke:#add439;stroke-width:0.231799;stroke-linecap:butt;stroke-linejoin:miter;stroke-dasharray:none;stroke-opacity:1"
       d="m 475.19345,138.32277 68.99211,-34.53217 68.99211,34.53217 -68.99211,34.53217 z"
       id="path52651-4" />
    <path
       id="path61365-5"
       style="fill:#2e90e8;fill-opacity:1;fill-rule:evenodd;stroke:#2e90e8;stroke-width:0.231799;stroke-linecap:butt;stroke-linejoin:miter;stroke-dasharray:none;stroke-opacity:1"
       d="m 544.18559,34.72618 -68.99216,34.532295 v 69.064145 l 68.99216,-34.53184 z" />
    <path
       id="path65514-6"
       style="fill:#f4ffff;fill-opacity:1;fill-rule:evenodd;stroke:#000000;stroke-width:0;stroke-linecap:butt;stroke-linejoin:miter;stroke-dasharray:none;stroke-opacity:1"
       d="m 539.87322,62.78342 -8.6237,4.316704 v 30.215593 l -12.7436,6.378253 v -8.511176 l -4.31185,2.158347 v 8.511169 0.1218 8.51117 l 25.67915,-12.85286 z m -25.87161,34.532297 -4.31236,2.158346 v 8.632967 8.63296 l 0.19298,-0.0968 V 99.499497 l 4.11938,-2.061986 z" />
    <path
       id="path67697-1"
       style="fill:#f4ffff;fill-opacity:1;fill-rule:evenodd;stroke:#000000;stroke-width:0;stroke-linecap:butt;stroke-linejoin:miter;stroke-dasharray:none;stroke-opacity:1"
       d="m 548.49743,62.783866 v 38.849004 l 8.62422,4.31626 V 92.999454 88.683199 l 8.62421,4.316255 v -4.316255 l -8.62421,-4.316704 v -8.632963 l 21.56027,10.791315 v -0.07138 l -4.1199,-2.061989 v -8.561582 z" />
    <path
       id="path68428-0"
       style="fill:#f4ffff;fill-opacity:1;fill-rule:evenodd;stroke:#000000;stroke-width:0;stroke-linecap:butt;stroke-linejoin:miter;stroke-dasharray:none;stroke-opacity:1"
       d="m 544.18556,108.10721 -30.18398,15.10756 8.62422,4.31671 21.55976,-10.79132 21.56027,10.79132 8.62421,-4.31671 -21.56027,-10.79132 z" />
    <rect
       style="fill:#2e90e8;fill-opacity:1;stroke:none;stroke-width:0.231799;stroke-dasharray:none;stroke-opacity:1"
       id="rect108067"
       width="11.211218"
       height="21.150955"
       x="502.98279"
       y="96.046188" />
    <path
       style="fill:#ea205e;fill-opacity:1;fill-rule:evenodd;stroke:#ea205e;stroke-width:0.26817;stroke-linecap:butt;stroke-linejoin:miter;stroke-dasharray:none;stroke-opacity:1"
       d="m 731.79051,112.25773 0.0939,-79.906421 79.63794,39.91298 v 79.986891 z"
       id="path37123-4-3"
       sodipodi:nodetypes="ccccc"
       inkscape:export-filename="logo-64x64.png"
       inkscape:export-xdpi="10.156079"
       inkscape:export-ydpi="10.156079" />
    <path
       style="fill:#add439;fill-opacity:1;fill-rule:evenodd;stroke:#add439;stroke-width:0.26817;stroke-linecap:butt;stroke-linejoin:miter;stroke-dasharray:none;stroke-opacity:1"
       d="m 652.05868,152.25118 79.73183,-39.99345 79.73183,39.99345 -79.73183,39.99344 z"
       id="path52651-4-6" />
    <path
       id="path61365-5-1"
       style="fill:#2e90e8;fill-opacity:1;fill-rule:evenodd;stroke:#2e90e8;stroke-width:0.26817;stroke-linecap:butt;stroke-linejoin:miter;stroke-dasharray:none;stroke-opacity:1"
       d="m 731.79054,32.270767 -79.73188,39.993582 v 79.986661 l 79.73188,-39.99307 z" />
    <path
       id="path65514-6-5"
       style="fill:#f4ffff;fill-opacity:1;fill-rule:evenodd;stroke:#000000;stroke-width:0;stroke-linecap:butt;stroke-linejoin:miter;stroke-dasharray:none;stroke-opacity:1"
       d="m 726.80689,64.765264 -9.96612,4.999393 v 34.994193 l -14.72734,7.38697 v -9.85721 l -4.98306,2.49969 v 9.85721 0.14106 9.85721 l 29.67652,-14.88554 z m -29.89894,39.993586 -4.98365,2.49969 v 9.99827 9.99827 l 0.22302,-0.11212 V 107.288 l 4.76063,-2.38809 z" />
    <path
       id="path67697-1-5"
       style="fill:#f4ffff;fill-opacity:1;fill-rule:evenodd;stroke:#000000;stroke-width:0;stroke-linecap:butt;stroke-linejoin:miter;stroke-dasharray:none;stroke-opacity:1"
       d="m 736.77359,64.765781 v 44.992979 l 9.96672,4.99887 V 99.75997 94.761101 l 9.9667,4.998869 v -4.998869 l -9.9667,-4.99939 V 79.76344 l 24.91647,12.497961 v -0.08269 l -4.76123,-2.388088 v -9.915605 z" />
    <path
       id="path68428-0-4"
       style="fill:#f4ffff;fill-opacity:1;fill-rule:evenodd;stroke:#000000;stroke-width:0;stroke-linecap:butt;stroke-linejoin:miter;stroke-dasharray:none;stroke-opacity:1"
       d="m 731.79051,117.25701 -34.8826,17.49683 9.96672,4.9994 24.91588,-12.49797 24.91647,12.49797 9.9667,-4.9994 -24.91647,-12.49796 z" />
    <rect
       style="fill:#2e90e8;fill-opacity:1;stroke:none;stroke-width:0.26817;stroke-dasharray:none;stroke-opacity:1"
       id="rect108067-7"
       width="12.956422"
       height="24.495985"
       x="684.17389"
       y="103.28854" />
    <path
       style="fill:#ea205e;fill-opacity:1;fill-rule:evenodd;stroke:#ea205e;stroke-width:0.26817;stroke-linecap:butt;stroke-linejoin:miter;stroke-dasharray:none;stroke-opacity:1"
       d="m 911.97634,117.51334 0.0939,-79.906422 79.63794,39.91298 v 79.986892 z"
       id="path37123-4-3-6"
       sodipodi:nodetypes="ccccc"
       inkscape:export-filename="logo-16x16.png"
       inkscape:export-xdpi="2.5390198"
       inkscape:export-ydpi="2.5390198" />
    <path
       style="fill:#add439;fill-opacity:1;fill-rule:evenodd;stroke:#add439;stroke-width:0.26817;stroke-linecap:butt;stroke-linejoin:miter;stroke-dasharray:none;stroke-opacity:1"
       d="m 832.24451,157.50679 79.73183,-39.99345 79.73183,39.99345 -79.73183,39.99344 z"
       id="path52651-4-6-5" />
    <path
       id="path61365-5-1-6"
       style="fill:#2e90e8;fill-opacity:1;fill-rule:evenodd;stroke:#2e90e8;stroke-width:0.26817;stroke-linecap:butt;stroke-linejoin:miter;stroke-dasharray:none;stroke-opacity:1"
       d="m 911.97637,37.526376 -79.73188,39.993582 v 79.986662 l 79.73188,-39.99307 z" />
    <rect
       style="fill:#2e90e8;fill-opacity:1;stroke:none;stroke-width:0.26817;stroke-dasharray:none;stroke-opacity:1"
       id="rect108067-7-4"
       width="12.956422"
       height="24.495985"
       x="864.35974"
       y="108.54415" />
  </g>
</svg>
